ply
format ascii 1.0
element vertex 10
property float32 x
property float32 y
property float32 z
property float pscale
property uchar red
property uchar green
property uchar blue
end_header
18.156995462366744 11.560097339826632 6.616024495922578 1.0 255 255 255
16.662615871785626 7.403571422522994 9.97980901663437 1.0 255 255 255
16.5302637822332 12.699090563835203 8.534788029263552 1.0 255 255 255
16.457542594357093 9.391436028650203 6.941859717475327 1.0 255 255 255
16.609063899056405 10.118806442550405 9.576805171934977 1.0 255 255 255
14.918523883389668 9.122144509999572 9.013999692105768 1.0 255 255 255
15.67104173958436 11.260989106320544 7.436302562924217 1.0 255 255 255
18.188369373745193 10.697664441252607 8.48727780704503 1.0 255 255 255
14.7824367814935 7.414189330478824 7.951450728962142 1.0 255 255 255
17.310912890007025 8.005538039355228 8.158290387227213 1.0 255 255 255
