ply
format ascii 1.0
element vertex 12
property float32 x
property float32 y
property float32 z
property float pscale
property uchar red
property uchar green
property uchar blue
end_header
19.06896737401842 17.557912293117674 21.919786721389045 1.0 255 255 255
17.61569900786272 17.2728476478245 23.282003732031278 1.0 255 255 255
20.51925376983477 16.40638949482648 21.160554196472408 1.0 255 255 255
18.32762851197587 14.971796594300379 21.973783150621077 1.0 255 255 255
19.59378366702712 15.391620834202811 23.50241139049795 1.0 255 255 255
20.971637599446193 16.88992108372069 23.77249335316417 1.0 255 255 255
18.09173773413904 17.760006912944192 25.89366753849887 1.0 255 255 255
21.4895600252643 18.478461555684426 22.663925817774253 1.0 255 255 255
19.510144957282563 16.581564532480893 25.119263149313348 1.0 255 255 255
17.055304488593986 15.707772312684288 24.413066254439734 1.0 255 255 255
20.173543476845126 19.23265307581673 25.0000942584441 1.0 255 255 255
18.914796730294828 18.794520313692747 23.500612788662057 1.0 255 255 255
