ply
format ascii 1.0
element vertex 14
property float32 x
property float32 y
property float32 z
property float pscale
property uchar red
property uchar green
property uchar blue
end_header
21.11637478030094 8.230636303023212 8.662101603144304 1.0 255 255 255
18.59279808979236 6.868185188251407 7.025939578036179 1.0 255 255 255
17.84893508909303 6.4265141869013265 5.195362427217813 1.0 255 255 255
18.47102898806486 8.563276490804684 5.9257414777863096 1.0 255 255 255
19.079972008366923 8.970630001329575 7.79515714689846 1.0 255 255 255
20.39529155940543 7.748753560856311 6.849841186232877 1.0 255 255 255
16.65276599706367 7.735056890603527 6.133721695096115 1.0 255 255 255
19.67825678614218 7.229140507503614 5.039549680730797 1.0 255 255 255
20.61913566349381 6.032509379880893 7.8909976227084915 1.0 255 255 255
16.789379347155826 6.018621678520723 7.189721549898356 1.0 255 255 255
19.358835707238264 7.26434507328099 8.841063121771887 1.0 255 255 255
17.76415734672493 8.10837063985075 4.106804802021469 1.0 255 255 255
17.272841299583362 8.136003620565813 7.992476991107968 1.0 255 255 255
19.799406635823676 5.5426630386565785 6.131604549591892 1.0 255 255 255
