ply
format ascii 1.0
element vertex 15
property float32 x
property float32 y
property float32 z
property float pscale
property uchar red
property uchar green
property uchar blue
end_header
12.546926402944175 21.30018052755729 18.044685740879977 1.0 255 255 255
10.542365689688339 22.844622935909218 20.998402537430636 1.0 255 255 255
10.557286671460115 21.535189641209243 17.96328744527612 1.0 255 255 255
12.536687067650528 22.653984337349293 21.043783524696778 1.0 255 255 255
11.018986894554773 21.04360123019109 21.745192580990587 1.0 255 255 255
9.796389742743386 21.413121150007253 19.809638902442778 1.0 255 255 255
11.001422246984864 19.738326842361378 18.763689936290724 1.0 255 255 255
12.194765195482882 19.388710773257987 20.647212282008788 1.0 255 255 255
11.280529811065083 22.980662143794365 19.1428711800947 1.0 255 255 255
13.769956540752888 20.951596032386004 19.906627871693942 1.0 255 255 255
11.782839827086889 21.19704399533859 19.89778529062746 1.0 255 255 255
10.208359952650486 19.618548542898104 20.599223340619425 1.0 255 255 255
12.985669423638294 19.47539637612891 18.80606719504159 1.0 255 255 255
13.295816958762757 22.7636888584415 19.19325563638144 1.0 255 255 255
13.012792795329307 20.840160812187403 21.754960813360356 1.0 255 255 255
