ply
format ascii 1.0
element vertex 17
property float32 x
property float32 y
property float32 z
property float pscale
property uchar red
property uchar green
property uchar blue
end_header
20.687010790555433 14.73164647436754 8.539395893503274 1.0 255 255 255
19.158611633034404 13.483045841012961 10.201407428573667 1.0 255 255 255
21.576882633729063 16.376299057807426 10.311149622498448 1.0 255 255 255
22.196167303192183 13.427614212256495 10.224708555537502 1.0 255 255 255
20.089120614408383 13.983975499511606 6.148116789880215 1.0 255 255 255
18.369163136077862 13.675440301532047 8.325505697717043 1.0 255 255 255
22.705145382505094 16.10301137827585 7.76985421544461 1.0 255 255 255
20.083011366617697 16.65221187836256 6.975300728922066 1.0 255 255 255
19.244440763576886 15.900504119233275 9.321829227137853 1.0 255 255 255
20.720597181096885 14.582344244294749 11.05290034413164 1.0 255 255 255
22.134838613955807 13.577122410450537 7.696141183155412 1.0 255 255 255
21.50798153088177 15.492277676613309 6.181908665434219 1.0 255 255 255
20.640797819405265 12.336141755475067 9.40633329055367 1.0 255 255 255
23.005273937928614 15.164567158071623 9.566786059495183 1.0 255 255 255
21.236585832759975 17.269618978153563 8.492244872948765 1.0 255 255 255
19.830365912321664 12.503453426571758 7.539475538260574 1.0 255 255 255
18.654490862483588 15.190951383380915 6.963362077078571 1.0 255 255 255
