ply
format ascii 1.0
element vertex 7
property float32 x
property float32 y
property float32 z
property float pscale
property uchar red
property uchar green
property uchar blue
end_header
-0.0 -0.0 0.0 1.0 255 255 255
2.0 -0.0 0.0 1.0 255 255 255
-0.618033988749895 1.5115226281523415 1.1547005383792515 1.0 255 255 255
2.618033988749895 1.5115226281523415 1.1547005383792515 1.0 255 255 255
1.0 2.4456949871150573 1.8683447179254313 1.0 255 255 255
1.0 1.7320508075688772 0.0 1.0 255 255 255
1.0 0.4554452897990188 1.6710983178735739 1.0 255 255 255
