ply
format ascii 1.0
element vertex 8
property float32 x
property float32 y
property float32 z
property float pscale
property uchar red
property uchar green
property uchar blue
end_header
0.0 -0.0 0.0 1.0 255 255 255
2.0 0.0 0.0 1.0 255 255 255
1.0 2.8384742123388693 1.6660814053872572 1.0 255 255 255
1.0 1.3498705976934087 3.0017682243925465 1.0 255 255 255
1.0 1.7320508075688772 -0.0 1.0 255 255 255
1.0 -0.1870101505613114 1.721925434967216 1.0 255 255 255
-0.28916854644831 1.321652076512356 1.472962097406294 1.0 255 255 255
2.28916854644831 1.321652076512356 1.472962097406294 1.0 255 255 255
